<?xml version="1.0" standalone="no"?>
<!DOCTYPE svg PUBLIC "-//W3C//DTD SVG 20010904//EN"
 "http://www.w3.org/TR/2001/REC-SVG-20010904/DTD/svg10.dtd">
<svg version="1.0" xmlns="http://www.w3.org/2000/svg"
 width="1200.000000pt" height="960.000000pt" viewBox="0 0 1200.000000 960.000000"
 preserveAspectRatio="xMidYMid meet">
<metadata>
Created by potrace 1.16, written by Peter Selinger 2001-2019
</metadata>
<g transform="translate(0.000000,960.000000) scale(0.100000,-0.100000)"
fill="#000000" stroke="none">
<path d="M6485 7444 c-445 -123 -827 -229 -847 -234 l-38 -11 0 -215 0 -216
-27 6 c-16 4 -215 59 -444 122 -229 63 -419 114 -423 114 -3 0 -6 -697 -6
-1550 0 -852 1 -1550 3 -1549 1 0 382 102 847 227 l845 228 3 221 2 221 58
-15 c31 -8 232 -62 446 -119 214 -58 390 -103 392 -101 2 2 3 699 2 1549 l-3
1545 -810 -223z m233 -127 l-428 -202 3 -994 2 -993 363 -188 c380 -196 395
-205 341 -190 -171 46 -1132 303 -1157 310 l-33 9 3 -52 3 -51 232 -62 c127
-34 236 -65 242 -68 17 -11 15 -381 -1 -393 -15 -11 -1298 -356 -1304 -350 -2
1 161 88 361 192 l365 188 -2 994 -3 994 -416 197 c-230 108 -414 198 -410
200 4 1 165 -41 357 -93 785 -216 927 -255 935 -255 5 0 9 22 9 48 l0 49 -237
65 -238 65 -3 188 c-1 104 1 192 6 197 9 9 1395 396 1422 397 8 0 -177 -90
-412 -202z m-143 -1073 c80 -86 -35 -231 -117 -149 -33 33 -42 77 -24 120 26
61 98 76 141 29z m-1058 -658 c24 -21 28 -32 28 -74 0 -92 -77 -134 -142 -78
-63 54 -23 176 57 176 16 0 41 -11 57 -24z"/>
</g>
</svg>
